<svg data-v-423bf9ae="" xmlns="http://www.w3.org/2000/svg" viewBox="0 0 732 90" class="iconLeft"><!----><!----><!----><g data-v-423bf9ae="" id="90390c88-5422-4ae8-aed9-c580e8f5631e" fill="#2e3034" transform="matrix(5.258545206169178,0,0,5.258545206169178,197.50892745389444,1.0122676313153747)"><path d="M8.61 14.07L10.82 3.78L9.83 3.78L8.34 10.70L5.49 3.22L2.62 10.70L1.15 3.78L0.14 3.78L2.37 14.07L5.49 5.78ZM12.99 13.30L12.99 10.72C12.99 9.87 13.14 9.22 13.43 8.77C13.60 8.52 13.81 8.33 14.07 8.20C14.33 8.06 14.67 7.99 15.09 7.99C15.51 7.99 15.81 8.14 16.00 8.42C16.18 8.71 16.27 9.05 16.27 9.45L16.27 13.30L17.25 13.30L17.25 9.45C17.25 8.74 17.06 8.16 16.69 7.72C16.50 7.50 16.27 7.33 16.00 7.20C15.73 7.08 15.38 7.01 14.94 7.01C14.50 7.01 14.11 7.13 13.78 7.36C13.46 7.57 13.20 7.85 12.99 8.20L12.99 2.80L12.01 2.80L12.01 13.30ZM24.04 10.22C24.04 10.82 23.83 11.34 23.41 11.79C23.00 12.24 22.48 12.46 21.87 12.46C21.25 12.46 20.74 12.24 20.32 11.79C19.91 11.34 19.70 10.82 19.70 10.22C19.70 9.62 19.91 9.10 20.32 8.65C20.74 8.20 21.25 7.98 21.87 7.98C22.48 7.98 23.00 8.20 23.41 8.65C23.83 9.10 24.04 9.62 24.04 10.22ZM25.02 13.30L25.02 7.14L24.04 7.14L24.04 8.19C23.98 8.12 23.92 8.05 23.86 7.98C23.28 7.33 22.56 7.00 21.71 7.00C20.86 7.00 20.15 7.33 19.57 7.98C19.00 8.61 18.72 9.36 18.72 10.22C18.72 11.08 19.00 11.83 19.57 12.46C20.15 13.11 20.86 13.44 21.71 13.44C22.56 13.44 23.28 13.11 23.86 12.46C23.92 12.39 23.98 12.32 24.04 12.25L24.04 13.30ZM26.35 8.05L27.89 8.05L27.89 13.30L28.87 13.30L28.87 8.05L30.39 8.05L30.39 7.14L28.87 7.14L28.87 4.75L27.89 4.75L27.89 7.14L26.35 7.14ZM32.49 2.80L31.29 2.80L31.53 6.33L32.24 6.33ZM35.04 12.42C34.79 12.26 34.61 11.98 34.51 11.58L33.47 11.58C33.69 12.85 34.51 13.48 35.94 13.48C36.27 13.48 36.58 13.44 36.87 13.36C37.16 13.28 37.42 13.17 37.66 13.01C38.13 12.69 38.37 12.20 38.37 11.54C38.37 10.88 38.05 10.39 37.42 10.09C37.15 9.96 36.85 9.86 36.54 9.79C36.23 9.72 35.93 9.64 35.66 9.56C35.39 9.47 35.16 9.37 34.98 9.24C34.80 9.11 34.70 8.91 34.70 8.63C34.70 8.35 34.82 8.15 35.04 8.01C35.26 7.88 35.52 7.81 35.83 7.81C36.13 7.81 36.39 7.87 36.60 7.98C36.82 8.09 36.98 8.32 37.08 8.67L38.13 8.67C38.00 8.04 37.74 7.61 37.34 7.37C36.94 7.12 36.45 7.00 35.85 7.00C35.26 7.00 34.74 7.16 34.31 7.47C33.88 7.79 33.67 8.25 33.67 8.86C33.67 9.17 33.75 9.43 33.90 9.66C34.06 9.88 34.30 10.07 34.62 10.22C34.89 10.34 35.19 10.44 35.50 10.52C35.81 10.59 36.10 10.68 36.37 10.76C37.01 10.97 37.34 11.27 37.34 11.66C37.34 12.33 36.89 12.67 35.99 12.67C35.60 12.67 35.29 12.59 35.04 12.42ZM42.78 4.66L45.09 4.66L45.09 13.27L46.07 13.27L46.07 4.66L48.38 4.66L48.38 3.75L46.07 3.75L45.09 3.75L42.78 3.75ZM50.69 13.30L50.69 10.72C50.69 9.87 50.84 9.22 51.14 8.77C51.30 8.52 51.51 8.33 51.77 8.20C52.03 8.06 52.37 7.99 52.79 7.99C53.21 7.99 53.52 8.14 53.70 8.42C53.88 8.71 53.97 9.05 53.97 9.45L53.97 13.30L54.95 13.30L54.95 9.45C54.95 8.74 54.76 8.16 54.39 7.72C54.20 7.50 53.97 7.33 53.70 7.20C53.43 7.08 53.08 7.01 52.64 7.01C52.20 7.01 51.81 7.13 51.48 7.36C51.16 7.57 50.90 7.85 50.69 8.20L50.69 2.80L49.71 2.80L49.71 13.30ZM61.74 10.22C61.74 10.82 61.53 11.34 61.12 11.79C60.70 12.24 60.18 12.46 59.57 12.46C58.96 12.46 58.44 12.24 58.02 11.79C57.61 11.34 57.40 10.82 57.40 10.22C57.40 9.62 57.61 9.10 58.02 8.65C58.44 8.20 58.96 7.98 59.57 7.98C60.18 7.98 60.70 8.20 61.12 8.65C61.53 9.10 61.74 9.62 61.74 10.22ZM62.72 13.30L62.72 7.14L61.74 7.14L61.74 8.19C61.69 8.12 61.63 8.05 61.56 7.98C60.98 7.33 60.27 7.00 59.42 7.00C58.57 7.00 57.85 7.33 57.27 7.98C56.70 8.61 56.42 9.36 56.42 10.22C56.42 11.08 56.70 11.83 57.27 12.46C57.85 13.11 58.57 13.44 59.42 13.44C60.27 13.44 60.98 13.11 61.56 12.46C61.63 12.39 61.69 12.32 61.74 12.25L61.74 13.30ZM64.05 8.05L65.59 8.05L65.59 13.30L66.57 13.30L66.57 8.05L68.10 8.05L68.10 7.14L66.57 7.14L66.57 4.75L65.59 4.75L65.59 7.14L64.05 7.14ZM79.42 10.65C79.42 9.97 79.26 9.40 78.93 8.95C78.60 8.50 78.16 8.20 77.60 8.05C77.93 7.90 78.21 7.65 78.42 7.28C78.52 7.11 78.59 6.94 78.64 6.76C78.70 6.57 78.72 6.32 78.72 6.01C78.72 5.69 78.65 5.38 78.50 5.07C78.08 4.21 77.18 3.78 75.78 3.78L73.21 3.78L73.21 13.30L76.12 13.30C77.09 13.30 77.86 13.08 78.44 12.64C78.74 12.41 78.98 12.11 79.16 11.76C79.33 11.41 79.42 11.03 79.42 10.65ZM77.74 6.16C77.74 6.67 77.59 7.06 77.28 7.31C76.97 7.56 76.57 7.69 76.06 7.69L74.19 7.69L74.19 4.72L75.78 4.72C77.09 4.72 77.74 5.20 77.74 6.16ZM78.44 10.46C78.44 11.02 78.25 11.49 77.86 11.84C77.49 12.19 77.00 12.36 76.40 12.36L74.19 12.36L74.19 8.67L76.55 8.67C77.05 8.67 77.49 8.83 77.86 9.16C78.03 9.32 78.17 9.50 78.28 9.72C78.39 9.93 78.44 10.18 78.44 10.46ZM81.75 5.01C81.62 4.89 81.48 4.83 81.30 4.83C81.13 4.83 80.99 4.89 80.86 5.01C80.74 5.13 80.68 5.28 80.68 5.45C80.68 5.63 80.74 5.77 80.86 5.89C80.99 6.02 81.13 6.08 81.30 6.08C81.48 6.08 81.62 6.02 81.75 5.89C81.87 5.77 81.93 5.63 81.93 5.45C81.93 5.28 81.87 5.13 81.75 5.01ZM81.80 13.30L81.80 7.14L80.82 7.14L80.82 13.30ZM87.12 8.41L87.12 7.14C86.93 7.06 86.72 7.01 86.51 7.01C85.82 7.01 85.31 7.40 84.98 8.16L84.94 8.41L84.94 7.14L83.96 7.14L83.96 13.30L84.94 13.30L84.94 10.22C84.94 9.71 85.05 9.26 85.29 8.86C85.41 8.64 85.56 8.47 85.74 8.32C85.92 8.18 86.14 8.11 86.40 8.11C86.66 8.11 86.90 8.21 87.12 8.41ZM93.21 10.22C93.21 10.82 93.00 11.34 92.59 11.79C92.17 12.24 91.66 12.46 91.04 12.46C90.43 12.46 89.91 12.24 89.50 11.79C89.08 11.34 88.87 10.82 88.87 10.22C88.87 9.62 89.08 9.10 89.50 8.65C89.91 8.20 90.43 7.98 91.04 7.98C91.66 7.98 92.17 8.20 92.59 8.65C93.00 9.10 93.21 9.62 93.21 10.22ZM94.19 13.30L94.19 2.80L93.21 2.80L93.21 8.19C93.16 8.12 93.10 8.05 93.04 7.98C92.46 7.33 91.74 7.00 90.89 7.00C90.04 7.00 89.32 7.33 88.74 7.98C88.17 8.61 87.89 9.36 87.89 10.22C87.89 11.08 88.17 11.83 88.74 12.46C89.32 13.11 90.04 13.44 90.89 13.44C91.74 13.44 92.46 13.11 93.04 12.46C93.10 12.39 93.16 12.32 93.21 12.25L93.21 13.30ZM99.41 13.21C99.57 13.06 99.65 12.87 99.65 12.65C99.65 12.43 99.57 12.24 99.41 12.09C99.24 11.94 99.05 11.86 98.83 11.86C98.61 11.86 98.42 11.94 98.26 12.10C98.10 12.25 98.01 12.44 98.01 12.66C98.01 12.87 98.10 13.06 98.26 13.21C98.42 13.36 98.61 13.44 98.83 13.44C99.05 13.44 99.24 13.36 99.41 13.21ZM99.41 10.46L99.41 8.02C99.41 7.68 99.60 7.34 99.96 7.01C100.12 6.86 100.29 6.72 100.46 6.59C100.64 6.45 100.81 6.31 100.97 6.15C101.33 5.80 101.51 5.41 101.51 4.97C101.51 4.23 101.24 3.65 100.70 3.23C100.21 2.85 99.58 2.66 98.81 2.66C98.03 2.66 97.41 2.84 96.94 3.21C96.43 3.61 96.14 4.18 96.07 4.93L97.23 4.93C97.28 4.49 97.45 4.16 97.74 3.94C98.04 3.72 98.39 3.61 98.82 3.61C99.24 3.61 99.60 3.72 99.89 3.95C100.18 4.17 100.32 4.51 100.32 4.97C100.32 5.19 100.26 5.39 100.14 5.57C100.01 5.74 99.73 5.97 99.27 6.26C98.57 6.70 98.22 7.28 98.22 8.01L98.22 10.46Z"></path></g><!----><g data-v-423bf9ae="" id="d64d98e0-4b2d-43f5-8be5-609ac1e99727" transform="matrix(1.8476930698822778,0,0,1.8476930698822778,-2.4205588254549895,-50.73535906816346)" stroke="none" fill="#5a75ad"><switch><g><path d="M97.923 73.621c-.213-.854-33.235-16.661-33.839-17.038C40.333 70.5 18.92 49.136 18.92 49.136 20 51 44.25 66.083 67.167 50.25c-7.211-4.633-25.094-9.28-36.927-16.069-2.268-1.302-4.485-4.485-9.646-5.843-7.465-1.968-13.745 5.299-13.745 5.299s-2.99 1.281-5.055 2.176c-1.439.625 3.422 1.709 5.131 3.631 1.709 1.922-.03 6.728 0 8.97.25 18.449 29.692 22.857 30.547 23.845.854.991-2.136 4.353-2.136 4.353s1.281.219 2.136 0c.854-.209 2.99-4.353 2.99-4.353 10.893.564 27.414-8.229 31.401-7.181 3.544.931 24.353 10.465 25.207 10.465.853 0 1.067-1.067.853-1.922zM12.244 36.739a2.243 2.243 0 112.243-2.243 2.248 2.248 0 01-2.243 2.243z"></path></g></switch></g><!----></svg>